<svg height="512" viewBox="0 0 128 128" width="512" xmlns="http://www.w3.org/2000/svg"><g><path d="m121 29.215h-66.069a1.75 1.75 0 0 0 -1.75 1.75v16.583h-10.994v-14.833h1.593a1.75 1.75 0 0 0 1.75-1.75v-6.917a3.743 3.743 0 0 0 -3.43-3.718 16.8 16.8 0 0 0 -33.42 0 3.743 3.743 0 0 0 -3.43 3.718v6.917a1.75 1.75 0 0 0 1.75 1.75h1.592v62.57h-1.592a1.75 1.75 0 0 0 -1.75 1.75v6.917a3.743 3.743 0 0 0 3.43 3.718 16.8 16.8 0 0 0 33.42 0 3.743 3.743 0 0 0 3.43-3.718v-6.917a1.75 1.75 0 0 0 -1.75-1.75h-1.593v-14.833h10.994v16.583a1.75 1.75 0 0 0 1.75 1.75h66.069a1.75 1.75 0 0 0 1.75-1.75v-66.07a1.75 1.75 0 0 0 -1.75-1.75zm-78.97 74.737a.251.251 0 0 1 -.25.25h-32.78a.25.25 0 0 1 -.25-.25v-5.167h33.28zm-33.28-79.904a.25.25 0 0 1 .25-.248h32.78a.251.251 0 0 1 .25.25v5.167h-33.28zm3.342 22.906 26.6 11.176v9.56l-26.6-11.176zm26.6 7.38-26.6-11.176v-9.558l26.6 11.176zm-26.6 19.332 26.6 11.176v9.558l-26.6-11.175zm0-3.8v-9.556l26.6 11.176v9.56zm26.6-28.891-19.669-8.26h19.664zm-13.302-32.225a13.308 13.308 0 0 1 13.169 11.55h-26.338a13.307 13.307 0 0 1 13.169-11.55zm-13.3 78.271 19.664 8.264h-19.662zm13.3 32.229a13.307 13.307 0 0 1 -13.169-11.55h26.338a13.308 13.308 0 0 1 -13.169 11.55zm16.8-42.3v-25.9h10.991v25.9zm77.06 18.335h-62.569v-62.57h62.569z"/><path d="m79.017 69.848a6.849 6.849 0 1 0 5.287 2.5l3.661-5.074 3.662 5.074a6.893 6.893 0 1 0 2.84-2.045l-4.344-6.019 12.3-17.046a1.75 1.75 0 1 0 -2.836-2.038l-11.622 16.1-11.621-16.1a1.75 1.75 0 1 0 -2.838 2.048l12.3 17.046-4.344 6.019a6.792 6.792 0 0 0 -2.445-.465zm21.239 6.842a3.342 3.342 0 1 1 -3.342-3.342 3.345 3.345 0 0 1 3.342 3.342zm-21.239 3.341a3.342 3.342 0 1 1 3.341-3.341 3.345 3.345 0 0 1 -3.341 3.341z"/></g></svg>