<?xml version="1.0" encoding="iso-8859-1"?>
<!-- Generator: Adobe Illustrator 19.0.0, SVG Export Plug-In . SVG Version: 6.00 Build 0)  -->
<svg version="1.1" id="Capa_1" xmlns="http://www.w3.org/2000/svg" xmlns:xlink="http://www.w3.org/1999/xlink" x="0px" y="0px"
	 viewBox="0 0 512 512" style="enable-background:new 0 0 512 512;" xml:space="preserve">
<g>
	<g>
		<path d="M268.707,332.556c-0.461-0.46-0.971-0.881-1.522-1.241c-0.541-0.37-1.121-0.671-1.723-0.921
			c-0.61-0.25-1.24-0.451-1.882-0.571c-1.291-0.26-2.612-0.26-3.903,0c-0.642,0.12-1.272,0.32-1.872,0.571
			c-0.611,0.25-1.191,0.551-1.732,0.921c-0.551,0.36-1.061,0.781-1.522,1.241c-0.461,0.461-0.881,0.971-1.241,1.522
			c-0.36,0.541-0.671,1.121-0.921,1.722c-0.25,0.611-0.44,1.241-0.571,1.882c-0.13,0.641-0.2,1.301-0.2,1.952s0.07,1.311,0.2,1.952
			s0.32,1.271,0.571,1.872c0.25,0.611,0.561,1.191,0.921,1.732c0.36,0.551,0.781,1.061,1.241,1.522
			c1.862,1.862,4.445,2.933,7.078,2.933c2.634,0,5.216-1.071,7.078-2.933c1.862-1.862,2.933-4.445,2.933-7.078
			C271.64,336.991,270.57,334.418,268.707,332.556z"/>
	</g>
</g>
<g>
	<g>
		<path d="M80.284,146.515c-0.13-0.641-0.32-1.271-0.571-1.872c-0.25-0.611-0.561-1.191-0.921-1.732
			c-0.37-0.551-0.791-1.061-1.251-1.522c-0.461-0.461-0.971-0.881-1.522-1.241c-0.541-0.36-1.121-0.671-1.722-0.921
			c-0.611-0.25-1.231-0.45-1.872-0.571c-1.291-0.26-2.623-0.26-3.914,0c-0.641,0.12-1.271,0.32-1.872,0.571
			c-0.611,0.25-1.191,0.561-1.732,0.921c-0.551,0.36-1.061,0.781-1.522,1.241c-0.461,0.461-0.881,0.971-1.241,1.522
			c-0.36,0.541-0.671,1.121-0.921,1.732c-0.25,0.601-0.44,1.231-0.571,1.872s-0.2,1.301-0.2,1.952c0,2.633,1.071,5.216,2.933,7.078
			c0.46,0.461,0.971,0.881,1.522,1.251c0.541,0.36,1.121,0.671,1.732,0.921c0.601,0.25,1.231,0.44,1.872,0.571
			c0.641,0.13,1.301,0.19,1.952,0.19c0.661,0,1.311-0.06,1.962-0.19c0.641-0.13,1.261-0.32,1.872-0.571
			c0.601-0.25,1.181-0.561,1.722-0.921c0.551-0.37,1.061-0.791,1.522-1.251c1.862-1.862,2.933-4.435,2.933-7.078
			C80.474,147.817,80.414,147.156,80.284,146.515z"/>
	</g>
</g>
<g>
	<g>
		<path d="M509.067,129.984l-38.28-38.281c-24.005-24.005-63.066-24.006-87.073,0l-91.674,91.673
			c-3.908,3.909-3.909,10.247-0.001,14.156l29.377,29.386l-41.211,41.21L104.946,92.869c-0.227-0.226-0.455-0.452-0.688-0.672
			c-24.002-23.219-62.716-22.901-86.337,0.721c-23.61,23.61-23.933,62.343-0.719,86.341l0.001-0.001
			c0.99,0.998,13.009,13.025,175.927,175.944l-50.108,50.108c-3.909,3.909-3.909,10.248,0,14.158
			c12.524,12.524,28.937,18.832,45.375,18.832c15.423,0,30.869-5.553,43.147-16.735c0.108-0.099,0.215-0.2,0.319-0.303
			c0,0,5.164-5.135,10.327-10.319c1.368-1.374,2.735-2.748,4.008-4.034c10.233,7.15,22.411,11.019,35.225,11.024
			c16.487-0.007,31.946-6.392,43.531-17.977c11.589-11.589,17.97-27.05,17.97-43.537c0-12.781-3.851-24.937-10.975-35.159
			l177.117-177.117C512.977,140.232,512.977,133.894,509.067,129.984z M217.907,406.903c-14.894,13.438-36.487,14.905-52.846,4.683
			l42.227-42.225c7.707,7.707,15.729,15.729,24.074,24.075C227.564,397.267,222.597,402.237,217.907,406.903z M310.798,385.797
			c-7.805,7.805-18.241,12.108-29.374,12.113c-11.143-0.005-21.578-4.307-29.384-12.113
			c-2.177-2.177-216.776-216.775-220.492-220.504c-15.619-16.197-15.388-42.3,0.53-58.217c15.952-15.952,42.103-16.154,58.296-0.452
			c0.041,0.04,0.082,0.079,0.124,0.118c0.104,0.098,0.205,0.2,0.338,0.333l219.962,219.962c7.807,7.807,12.107,18.242,12.107,29.38
			C322.904,367.557,318.605,377.99,310.798,385.797z M318.484,306.41l-24.123-24.123l48.289-48.288l10.742-10.742
			c3.909-3.909,3.909-10.248,0-14.158c-3.91-3.909-10.247-3.909-14.158,0l-3.662,3.662l-22.297-22.304l84.597-84.595
			c13.76-13.76,34.845-15.824,50.811-6.212l-52.82,52.82c-3.909,3.909-3.909,10.248,0,14.158c1.955,1.955,4.517,2.932,7.079,2.932
			s5.125-0.978,7.079-2.932l53.688-53.687l24.123,24.123L318.484,306.41z"/>
	</g>
</g>
<g>
	<g>
		<path d="M384.443,185.908c-0.131-0.641-0.321-1.271-0.572-1.872c-0.25-0.611-0.561-1.191-0.921-1.732
			c-0.36-0.551-0.781-1.061-1.241-1.522c-0.46-0.461-0.98-0.881-1.522-1.241c-0.551-0.36-1.131-0.671-1.732-0.921
			c-0.601-0.25-1.23-0.44-1.872-0.571c-1.291-0.26-2.623-0.26-3.914,0c-0.641,0.13-1.261,0.32-1.871,0.571
			c-0.602,0.25-1.182,0.561-1.723,0.921c-0.551,0.36-1.061,0.781-1.522,1.241c-0.471,0.461-0.881,0.971-1.251,1.522
			c-0.36,0.541-0.671,1.121-0.921,1.732c-0.25,0.601-0.44,1.231-0.571,1.872c-0.13,0.641-0.2,1.301-0.2,1.952
			c0,2.643,1.071,5.216,2.943,7.078c0.461,0.461,0.971,0.881,1.522,1.251c0.541,0.36,1.121,0.671,1.723,0.921
			c0.61,0.25,1.23,0.44,1.871,0.571c0.651,0.13,1.302,0.19,1.963,0.19c0.65,0,1.301-0.06,1.951-0.19
			c0.642-0.13,1.272-0.32,1.872-0.571c0.602-0.25,1.182-0.561,1.732-0.921c0.541-0.37,1.061-0.791,1.522-1.251
			c1.862-1.862,2.934-4.435,2.934-7.078C384.643,187.209,384.573,186.548,384.443,185.908z"/>
	</g>
</g>
<g>
</g>
<g>
</g>
<g>
</g>
<g>
</g>
<g>
</g>
<g>
</g>
<g>
</g>
<g>
</g>
<g>
</g>
<g>
</g>
<g>
</g>
<g>
</g>
<g>
</g>
<g>
</g>
<g>
</g>
</svg>
